<svg viewBox="0 0 24 22" class="css-aw1kz3 e1y54mbs0" enable-background="new 0 0 24 22"><path d="M12 4.5C16.1133 4.5 19.7695 6.78516 21.5469 10.4414C20.9375 11.7617 20.0234 12.9297 18.957 13.8438L20.4805 15.3672C21.9531 14.0469 23.1719 12.3711 23.9336 10.4414C22.0547 5.71875 17.4336 2.31641 12 2.31641C10.6289 2.31641 9.30859 2.57031 8.03906 2.92578L9.86719 4.75391C10.5273 4.60156 11.2383 4.5 12 4.5ZM10.832 5.71875L13.0664 7.95312C13.6758 8.25781 14.1836 8.76562 14.4883 9.375L16.7227 11.6094C16.8242 11.2539 16.875 10.8477 16.875 10.4414C16.875 7.75 14.6914 5.56641 12 5.56641C11.5938 5.56641 11.2383 5.61719 10.832 5.71875ZM1.18359 2.21484L4.07812 5.10938C2.30078 6.48047 0.929688 8.30859 0.0664062 10.4414C1.94531 15.2148 6.56641 18.5664 12 18.5664C13.625 18.5664 15.25 18.2617 16.6719 17.7031L20.3789 21.4102L21.9023 19.8867L2.70703 0.640625L1.18359 2.21484ZM9.30859 10.3398L12.1523 13.1328C12.1016 13.1328 12.0508 13.1836 12 13.1836C10.5273 13.1836 9.30859 11.9648 9.30859 10.4414C9.30859 10.3906 9.30859 10.3906 9.30859 10.3398ZM5.60156 6.63281L7.53125 8.51172C7.27734 9.12109 7.125 9.78125 7.125 10.4414C7.125 13.1328 9.30859 15.3164 12 15.3164C12.6602 15.3164 13.3203 15.2148 13.9297 14.9609L14.9961 16.0273C14.0312 16.2812 13.0156 16.4336 12 16.4336C7.88672 16.4336 4.23047 14.0977 2.45312 10.4414C3.21484 8.91797 4.33203 7.64844 5.60156 6.63281Z" fill="currentColor"></path></svg>