<svg viewBox="0 -2 24 22" class="css-aw1kz3 e1uv4tk30" enable-background="new 0 -2 24 22"><path d="M12 2.5C16.1133 2.5 19.7695 4.78516 21.5469 8.44141C19.7695 12.0977 16.1133 14.4336 12 14.4336C7.88672 14.4336 4.23047 12.0977 2.45312 8.44141C4.23047 4.78516 7.88672 2.5 12 2.5ZM12 0.316406C6.56641 0.316406 1.94531 3.71875 0.0664062 8.44141C1.94531 13.2148 6.56641 16.5664 12 16.5664C17.4336 16.5664 22.0547 13.2148 23.9336 8.44141C22.0547 3.71875 17.4336 0.316406 12 0.316406ZM12 5.75C13.4727 5.75 14.6914 6.96875 14.6914 8.44141C14.6914 9.96484 13.4727 11.1836 12 11.1836C10.5273 11.1836 9.30859 9.96484 9.30859 8.44141C9.30859 6.96875 10.5273 5.75 12 5.75ZM12 3.56641C9.30859 3.56641 7.125 5.75 7.125 8.44141C7.125 11.1328 9.30859 13.3164 12 13.3164C14.6914 13.3164 16.875 11.1328 16.875 8.44141C16.875 5.75 14.6914 3.56641 12 3.56641Z" fill="currentColor"></path></svg>